<?xml version="1.0" standalone="no"?>
<!DOCTYPE svg PUBLIC "-//W3C//DTD SVG 20010904//EN"
 "http://www.w3.org/TR/2001/REC-SVG-20010904/DTD/svg10.dtd">
<svg version="1.0" xmlns="http://www.w3.org/2000/svg"
 width="1174.000000pt" height="414.000000pt" viewBox="0 0 1174.000000 414.000000"
 preserveAspectRatio="xMidYMid meet">
<metadata>
Created by potrace 1.16, written by Peter Selinger 2001-2019
</metadata>
<g transform="translate(0.000000,414.000000) scale(0.100000,-0.100000)"
fill="#000000" stroke="none">
<path d="M3405 3084 c-154 -20 -236 -56 -314 -139 -51 -54 -94 -127 -106 -182
-5 -25 -2 -40 13 -60 11 -16 36 -58 55 -95 l35 -66 7 61 c25 216 125 319 335
347 58 8 256 10 605 8 504 -4 522 -4 586 -26 129 -43 203 -132 231 -277 19
-100 19 -1070 0 -1170 -28 -145 -102 -234 -231 -277 -64 -22 -82 -22 -586 -26
-349 -2 -547 0 -605 8 -210 28 -310 131 -335 347 l-7 61 -35 -66 c-19 -37 -44
-79 -55 -95 -15 -20 -18 -35 -13 -60 21 -95 116 -214 213 -265 106 -56 122
-57 782 -57 557 0 611 1 678 19 166 42 281 164 318 335 20 97 20 1225 0 1322
-35 165 -143 283 -303 332 -65 20 -94 21 -653 23 -322 1 -598 0 -615 -2z"/>
<path d="M3375 2805 c-22 -8 -57 -32 -77 -53 -53 -58 -68 -118 -68 -283 l0
-137 43 -33 c190 -149 310 -292 410 -494 64 -130 105 -258 131 -410 l12 -70
68 0 68 0 32 90 c121 338 336 600 651 792 l80 49 0 180 c-1 165 -3 183 -24
231 -13 29 -41 68 -62 88 -62 55 -116 66 -330 63 l-184 -3 1 -55 c0 -30 4
-120 9 -200 15 -275 -31 -578 -136 -905 -34 -109 -99 -268 -106 -262 -2 3 -13
65 -23 138 -42 289 -91 501 -165 719 -49 144 -141 366 -203 490 -41 84 -55 91
-127 65z"/>
<path d="M5564 2696 c-123 -28 -217 -94 -261 -184 -53 -109 -32 -256 50 -340
52 -54 112 -87 300 -166 98 -41 203 -90 232 -110 82 -54 114 -134 84 -213 -48
-129 -294 -170 -540 -91 -37 12 -74 18 -83 15 -20 -8 -58 -93 -54 -121 10 -72
388 -120 567 -73 189 50 288 156 299 323 7 109 -16 174 -86 243 -64 63 -123
94 -339 181 -175 70 -236 109 -264 168 -39 79 -11 148 77 192 41 21 66 25 159
28 95 3 124 0 210 -24 146 -39 155 -38 182 16 25 52 28 83 10 98 -7 6 -53 23
-102 38 -76 22 -113 27 -235 30 -100 2 -164 -1 -206 -10z"/>
<path d="M6705 2704 c-11 -2 -45 -9 -75 -15 -69 -14 -204 -65 -219 -83 -13
-16 24 -125 45 -133 6 -2 61 12 120 33 134 46 265 57 356 30 105 -30 158 -123
158 -278 l0 -78 -47 0 c-27 0 -117 -5 -201 -10 -308 -19 -467 -86 -547 -231
-29 -51 -30 -60 -30 -174 0 -105 3 -127 24 -173 34 -76 115 -146 197 -172 137
-42 338 -35 442 16 30 15 83 53 118 87 36 33 66 58 68 56 2 -2 8 -40 13 -84
l8 -80 70 0 70 0 0 505 c0 503 0 505 -23 561 -46 114 -137 186 -271 215 -60
12 -227 17 -276 8z m382 -771 c-6 -126 -29 -199 -82 -261 -91 -106 -323 -154
-444 -93 -86 44 -124 136 -101 245 10 49 20 67 59 105 76 77 202 106 465 110
l109 1 -6 -107z"/>
<path d="M7865 2704 c-11 -2 -45 -9 -75 -15 -69 -14 -204 -65 -219 -83 -13
-16 24 -125 45 -133 7 -3 59 12 116 33 98 36 109 38 228 38 110 1 130 -2 165
-21 86 -46 116 -105 123 -244 l5 -97 -154 -6 c-175 -8 -283 -20 -364 -41 -129
-34 -236 -108 -280 -195 -49 -97 -51 -241 -5 -347 27 -63 101 -136 167 -164
120 -52 361 -47 472 8 30 15 84 55 118 87 35 32 65 57 67 55 2 -2 7 -40 12
-84 l9 -80 70 0 70 0 0 505 c0 503 0 505 -23 561 -46 114 -137 186 -271 215
-60 12 -227 17 -276 8z m385 -736 c-1 -146 -41 -264 -112 -324 -51 -42 -132
-75 -215 -87 -217 -30 -341 81 -303 271 10 48 20 65 61 104 77 75 200 103 462
107 l107 1 0 -72z"/>
<path d="M10161 2695 c-84 -24 -168 -73 -221 -132 l-48 -53 -12 73 c-18 106
-19 107 -100 107 l-70 0 2 -637 3 -638 85 0 85 0 6 405 c5 338 9 415 23 464
52 185 152 258 351 260 93 1 104 -1 148 -27 57 -34 101 -97 116 -168 7 -31 11
-215 11 -482 0 -324 3 -436 12 -445 16 -16 150 -16 166 0 19 19 16 880 -3 973
-30 143 -107 241 -223 286 -75 29 -251 36 -331 14z"/>
<path d="M8480 2675 c0 -13 403 -1111 446 -1215 8 -19 20 -38 27 -42 7 -4 53
-8 103 -8 74 0 94 3 106 18 15 16 456 1192 466 1240 4 23 4 23 -94 20 l-99 -3
-112 -315 c-62 -173 -149 -421 -192 -550 -44 -129 -82 -228 -84 -220 -61 195
-132 406 -240 710 l-134 375 -97 3 c-82 2 -96 0 -96 -13z"/>
<path d="M4570 1651 c-74 -26 -169 -64 -210 -85 -139 -71 -276 -184 -268 -222
3 -18 17 -19 202 -22 154 -2 211 1 250 12 107 32 170 121 181 256 10 118 9
118 -155 61z"/>
<path d="M3237 1633 c-12 -12 -7 -88 9 -142 10 -37 29 -66 59 -96 60 -61 114
-75 281 -75 184 0 192 13 72 126 -72 67 -163 118 -291 163 -89 31 -118 37
-130 24z"/>
</g>
</svg>
