<?xml version="1.0" standalone="no"?>
<!DOCTYPE svg PUBLIC "-//W3C//DTD SVG 20010904//EN"
 "http://www.w3.org/TR/2001/REC-SVG-20010904/DTD/svg10.dtd">
<svg version="1.0" xmlns="http://www.w3.org/2000/svg"
 width="474.000000pt" height="189.000000pt" viewBox="0 0 474.000000 189.000000"
 preserveAspectRatio="xMidYMid meet">

<g transform="translate(0.000000,189.000000) scale(0.100000,-0.100000)"
fill="#000000" stroke="none">
<path d="M645 1401 c-3 -6 -10 -9 -15 -6 -13 8 -60 -18 -87 -47 -41 -44 -53
-90 -53 -208 0 -60 2 -110 5 -110 3 0 22 11 43 24 20 13 52 27 70 31 32 7 32
7 32 66 0 33 5 69 10 80 13 24 57 25 89 2 14 -9 21 -12 18 -6 -4 6 0 14 9 17
10 4 13 2 8 -6 -5 -7 -2 -9 9 -5 11 4 14 2 10 -8 -3 -8 -10 -12 -17 -9 -6 3
-2 -2 8 -10 11 -9 25 -16 32 -16 6 0 17 -7 24 -15 10 -12 14 -12 26 0 21 21
17 32 -16 47 -25 11 -27 14 -12 20 13 5 12 7 -8 8 -25 1 -25 1 5 15 28 13 29
14 4 9 -16 -3 -40 1 -59 11 -25 13 -29 19 -20 31 10 11 9 15 -4 20 -9 3 -14
10 -11 14 3 4 -9 7 -26 6 -39 -1 -50 20 -17 33 22 10 22 10 1 10 -12 1 -28 4
-36 7 -8 3 -18 0 -22 -5z m182 -197 c-3 -3 -12 -4 -19 -1 -8 3 -5 6 6 6 11 1
17 -2 13 -5z"/>
<path d="M725 1380 c-3 -6 1 -7 9 -4 18 7 21 14 7 14 -6 0 -13 -4 -16 -10z"/>
<path d="M785 1330 c-8 -13 9 -20 24 -11 10 6 9 10 -3 14 -8 3 -18 2 -21 -3z"/>
<path d="M805 1300 c-3 -5 1 -10 9 -10 9 0 16 5 16 10 0 6 -4 10 -9 10 -6 0
-13 -4 -16 -10z"/>
<path d="M2201 1194 c-91 -28 -153 -91 -185 -187 -50 -149 30 -316 173 -365
60 -21 179 -15 236 12 55 25 125 95 125 125 0 25 -101 53 -108 31 -9 -26 -55
-60 -95 -71 -83 -22 -176 14 -209 81 -9 19 -17 38 -18 42 0 4 100 9 223 10
l222 3 3 35 c9 89 -46 208 -114 251 -42 26 -127 49 -174 48 -19 -1 -55 -7 -79
-15z m156 -109 c39 -16 83 -68 83 -98 0 -15 -16 -17 -155 -17 -169 0 -170 0
-135 57 39 64 129 89 207 58z"/>
<path d="M2773 1196 c-62 -20 -103 -54 -125 -102 -16 -37 -17 -50 -8 -83 17
-66 52 -88 215 -137 95 -28 125 -46 125 -74 0 -50 -73 -81 -152 -66 -33 6 -83
45 -103 79 -9 16 -14 17 -62 2 -29 -9 -53 -20 -53 -26 0 -17 50 -85 79 -107
52 -38 100 -52 181 -52 146 0 230 65 230 177 0 56 -30 97 -94 127 -30 14 -61
26 -68 26 -18 0 -134 37 -158 50 -29 15 -26 56 6 76 51 34 142 15 184 -37 14
-17 18 -18 68 -3 28 9 52 20 52 25 0 22 -99 108 -136 119 -64 18 -136 21 -181
6z"/>
<path d="M3320 1201 c-125 -41 -181 -132 -136 -220 22 -41 57 -60 196 -105
123 -40 125 -42 128 -72 7 -69 -105 -100 -189 -52 -22 12 -39 24 -39 27 0 3
-8 16 -18 29 -17 22 -18 22 -70 7 -28 -9 -52 -18 -52 -21 0 -15 32 -63 62 -91
53 -51 112 -73 200 -73 156 0 254 88 228 205 -15 68 -61 98 -200 135 -104 28
-140 47 -140 76 0 69 137 79 201 14 28 -28 29 -28 79 -13 27 8 50 19 50 25 0
23 -96 106 -135 117 -55 16 -135 22 -165 12z"/>
<path d="M3874 1192 c-129 -46 -196 -139 -197 -276 0 -122 63 -221 170 -267
66 -28 183 -26 248 5 136 64 197 216 145 363 -50 143 -223 225 -366 175z m142
-107 c190 -56 150 -344 -48 -345 -60 0 -108 23 -137 65 -75 109 -26 257 94
284 22 5 40 9 41 10 0 1 23 -6 50 -14z"/>
<path d="M1590 915 l0 -285 59 0 59 0 4 138 c3 86 10 148 18 167 41 89 101
134 192 142 l58 6 0 58 0 59 -53 0 c-64 0 -145 -22 -180 -50 -33 -26 -35 -26
-39 13 -3 32 -4 32 -60 35 l-58 3 0 -286z"/>
<path d="M890 1159 c0 -5 -4 -7 -10 -4 -5 3 -10 4 -10 2 0 -2 23 -18 51 -36
33 -20 56 -28 65 -23 12 7 8 15 -20 40 -34 31 -76 43 -76 21z m65 -29 c8 -13
-1 -13 -26 0 -10 6 -19 15 -19 21 0 11 35 -5 45 -21z"/>
<path d="M1025 1080 c5 -9 1 -10 -16 -6 -21 6 -22 6 -6 -5 13 -7 22 -8 29 -1
6 6 6 12 -3 17 -8 6 -10 4 -4 -5z"/>
<path d="M629 993 c-60 -17 -115 -71 -130 -126 -16 -61 -7 -234 14 -275 22
-41 88 -89 134 -98 52 -10 95 7 230 91 l122 76 39 -23 c21 -13 63 -38 93 -55
30 -18 64 -33 76 -33 23 0 65 46 69 76 3 17 -60 84 -80 84 -7 0 -21 9 -32 21
-18 20 -18 21 6 40 14 11 35 24 47 29 16 7 21 15 16 26 -5 14 -2 16 13 11 19
-7 19 -7 0 8 -20 15 -41 15 -64 1 -19 -12 -30 4 -12 17 21 16 23 57 3 57 -12
0 -14 9 -11 39 2 22 0 37 -4 35 -5 -3 -8 -21 -8 -39 0 -28 -6 -37 -30 -50 -18
-9 -28 -21 -24 -27 4 -6 3 -8 -4 -4 -6 3 -27 -3 -47 -14 -44 -25 -50 -25 -86
1 -16 11 -34 17 -39 14 -6 -4 -9 -1 -8 7 2 7 -4 13 -12 13 -8 0 -24 8 -35 18
-30 27 -105 67 -150 81 -32 10 -49 9 -86 -1z m541 -91 c0 -13 -12 -22 -22 -16
-10 6 -1 24 13 24 5 0 9 -4 9 -8z m-389 -108 c39 -25 68 -49 63 -53 -5 -4 -40
-27 -78 -50 -100 -62 -126 -50 -126 62 0 100 33 110 141 41z m429 31 c7 -9 8
-15 2 -15 -5 0 -12 7 -16 15 -3 8 -4 15 -2 15 2 0 9 -7 16 -15z"/>
<path d="M1171 944 c0 -11 3 -14 6 -6 3 7 2 16 -1 19 -3 4 -6 -2 -5 -13z"/>
</g>
</svg>
